HIERARCHY
ROOT Hips
{
	OFFSET 0.000000 0.000000 0.000000
	CHANNELS 6 Xposition Yposition Zposition Zrotation Xrotation Yrotation
	JOINT Spine
	{
		OFFSET 0.000001 1.152660 1.729000
		CHANNELS 3 Zrotation Xrotation Yrotation
		JOINT Spine1
		{
			OFFSET 0.000001 0.400320 2.270310
			CHANNELS 3 Zrotation Xrotation Yrotation
			JOINT Spine2
			{
				OFFSET 0.000001 0.200920 2.296560
				CHANNELS 3 Zrotation Xrotation Yrotation
				JOINT Spine3
				{
					OFFSET 0.000001 -0.000000 2.305330
					CHANNELS 3 Zrotation Xrotation Yrotation
					JOINT Neck
					{
						OFFSET 0.000002 -0.864494 6.051490
						CHANNELS 3 Zrotation Xrotation Yrotation
						JOINT Head
						{
							OFFSET 0.000001 -0.550431 3.121671
							CHANNELS 3 Zrotation Xrotation Yrotation
							End Site
							{
								OFFSET 0.000001 -0.000003 3.731750
							}
						}
					}
					JOINT RightShoulder
					{
						OFFSET -0.788279 -1.313802 4.256720
						CHANNELS 3 Zrotation Xrotation Yrotation
						JOINT RightArm
						{
							OFFSET -3.915130 0.000002 0.000003
							CHANNELS 3 Zrotation Xrotation Yrotation
							JOINT RightForeArm
							{
								OFFSET -6.914911 0.000003 0.000002
								CHANNELS 3 Zrotation Xrotation Yrotation
								JOINT RightHand
								{
									OFFSET -6.096219 0.000002 0.000002
									CHANNELS 3 Zrotation Xrotation Yrotation
									JOINT RightHandEnd
									{
										OFFSET -1.749950 0.000001 0.000001
										CHANNELS 3 Zrotation Xrotation Yrotation
										End Site
										{
											OFFSET -1.749950 0.000001 0.000001
										}
									}
									JOINT RightHandThumb1
									{
										OFFSET -0.699980 -1.166630 -0.466650
										CHANNELS 3 Zrotation Xrotation Yrotation
										End Site
										{
											OFFSET -1.690319 -0.452919 0.000001
										}
									}
								}
							}
						}
					}
					JOINT LeftShoulder
					{
						OFFSET 0.788281 -1.313803 4.256720
						CHANNELS 3 Zrotation Xrotation Yrotation
						JOINT LeftArm
						{
							OFFSET 3.915130 -0.000002 -0.000003
							CHANNELS 3 Zrotation Xrotation Yrotation
							JOINT LeftForeArm
							{
								OFFSET 6.914909 -0.000003 -0.000002
								CHANNELS 3 Zrotation Xrotation Yrotation
								JOINT LeftHand
								{
									OFFSET 6.096218 -0.000002 -0.000002
									CHANNELS 3 Zrotation Xrotation Yrotation
									JOINT LeftHandEnd
									{
										OFFSET 1.749950 -0.000001 -0.000001
										CHANNELS 3 Zrotation Xrotation Yrotation
										End Site
										{
											OFFSET 1.749950 -0.000001 -0.000001
										}
									}
									JOINT LeftHandThumb1
									{
										OFFSET 0.699980 -1.166630 -0.466650
										CHANNELS 3 Zrotation Xrotation Yrotation
										End Site
										{
											OFFSET 1.690319 -0.452921 -0.000001
										}
									}
								}
							}
						}
					}
				}
			}
		}
	}
	JOINT RightUpLeg
	{
		OFFSET -2.338570 0.000001 -0.683179
		CHANNELS 3 Zrotation Xrotation Yrotation
		JOINT RightLeg
		{
			OFFSET -0.000005 0.000007 -10.744960
			CHANNELS 3 Zrotation Xrotation Yrotation
			JOINT RightFoot
			{
				OFFSET -0.000005 0.000007 -10.930851
				CHANNELS 3 Zrotation Xrotation Yrotation
				JOINT RightToeBase
				{
					OFFSET -0.000002 -4.087270 -1.487650
					CHANNELS 3 Zrotation Xrotation Yrotation
					End Site
					{
						OFFSET -0.000001 -1.891870 -0.000008
					}
				}
			}
		}
	}
	JOINT LeftUpLeg
	{
		OFFSET 2.338570 -0.000001 -0.683181
		CHANNELS 3 Zrotation Xrotation Yrotation
		JOINT LeftLeg
		{
			OFFSET -0.000005 0.000007 -10.744960
			CHANNELS 3 Zrotation Xrotation Yrotation
			JOINT LeftFoot
			{
				OFFSET -0.000005 0.000007 -10.930849
				CHANNELS 3 Zrotation Xrotation Yrotation
				JOINT LeftToeBase
				{
					OFFSET -0.000002 -4.087269 -1.487650
					CHANNELS 3 Zrotation Xrotation Yrotation
					End Site
					{
						OFFSET -0.000001 -1.891870 -0.000008
					}
				}
			}
		}
	}
}
MOTION
Frames: 14
Frame Time: 0.04
-3.419572 -1.259124 24.959534 171.273305 6.581941 -3.096396 1.185636 1.588695 -4.295601 2.160263 8.061965 -10.227567 -3.219886 -4.776870 -2.630374 -18.648860 -2.449457 7.048368 7.669095 -7.572492 1.422186 13.134910 6.814693 5.585383 -2.512612 -6.199020 1.069292 9.638624 -27.203793 -47.309708 -3.002204 0.000002 0.000005 -35.899471 -46.431401 -44.193312 0.000010 0.000001 -0.000003 0.000004 0.000002 0.000002 5.683910 -6.850093 -1.788737 35.158723 -20.652634 125.713060 -4.070483 51.774678 14.928285 7.243154 27.274079 -20.238026 -0.000000 -0.000000 0.000007 -0.000005 -0.000001 -0.000001 -10.075802 -16.684699 12.489278 -0.000000 5.186696 0.000003 -7.473108 -4.493000 -4.887217 0.000002 -2.894503 0.000003 -2.793103 -24.243948 -7.177435 0.548036 6.340490 -5.784137 7.473536 -4.497656 4.887242 0.000000 4.916494 -0.000000 
-2.064677 0.181756 24.959534 171.273305 6.581941 -3.096396 0.930984 0.608473 -3.519096 1.230399 4.946204 -6.024793 -3.219887 -4.776870 -2.630370 -13.772115 -4.584742 5.360027 6.035508 -4.405311 0.031879 12.302788 8.148992 2.917214 -2.512606 -6.199021 1.069293 13.107557 -10.023200 -64.013687 -1.637858 1.381013 -3.617898 -30.991700 -33.617231 -17.241556 4.616940 0.990770 -2.870165 2.634488 0.688885 -1.624768 5.683911 -6.850091 -1.788734 33.747411 -11.306141 101.308699 -5.257774 52.517420 17.907185 7.243163 27.274079 -20.238023 -0.000003 0.000001 -0.000001 -0.000002 -0.000002 -0.000000 -10.019850 -13.803807 10.625771 1.032749 7.607462 -2.109952 -7.983903 -10.379302 -4.953415 0.000001 -2.894504 0.000002 -3.140108 -21.374845 -9.765406 0.443108 7.696198 -8.378572 4.470898 -8.585770 2.713496 0.000000 4.916492 -0.000001 
-0.709783 1.622638 24.959532 171.273318 6.581941 -3.096392 0.703115 -0.376323 -2.743861 0.766708 1.781442 -1.880121 -3.219886 -4.776870 -2.630370 -9.052041 -6.931996 3.603891 4.560362 -1.167285 -1.354157 11.631821 9.571585 0.209440 -2.512610 -6.199021 1.069293 16.576497 7.157397 -80.717659 -0.273509 2.762033 -7.235797 -29.481832 -20.481314 6.400067 9.233868 1.981529 -5.740323 5.281034 1.377413 -3.249883 5.683906 -6.850090 -1.788735 32.336083 -1.959652 76.904331 -6.445076 53.260169 20.886083 7.243164 27.274084 -20.238026 -0.000003 0.000002 -0.000002 0.000002 -0.000001 -0.000005 -9.786525 -10.943122 8.819328 2.245001 9.956462 -4.245719 -8.514352 -16.264764 -5.075808 -0.000002 -2.894504 0.000001 -3.220461 -18.529600 -12.279372 0.464347 9.070966 -10.994142 1.151456 -12.673519 0.509091 0.000001 4.916496 0.000000 
0.645112 3.063518 24.959534 171.273318 6.581941 -3.096392 0.502066 -1.365146 -1.969230 0.764413 -1.381825 2.244259 -3.219886 -4.776870 -2.630369 -4.502168 -9.489255 1.792560 3.246428 2.135983 -2.746707 11.131576 11.070628 -2.542181 -2.512606 -6.199024 1.069296 20.045437 24.337996 -97.421631 1.090837 4.143051 -10.853697 -29.224737 -6.981748 28.051973 13.850792 2.972298 -8.610481 7.939647 2.065249 -4.875693 5.683911 -6.850092 -1.788734 30.924771 7.386838 52.499962 -7.632371 54.002918 23.864983 7.243160 27.274084 -20.238026 -0.000000 0.000000 -0.000000 0.000007 0.000001 -0.000003 -9.383520 -8.110666 7.055130 3.635866 12.223819 -6.415822 -9.077695 -22.148828 -5.261386 -0.000003 -2.894499 0.000001 -3.048627 -15.724368 -14.742407 0.614700 10.456114 -13.635702 -2.494886 -16.742809 -1.763731 -0.000001 4.916496 -0.000000 
2.000007 4.504400 24.959532 171.273318 6.581941 -3.096392 0.327906 -2.357448 -1.194522 1.219423 -4.493836 6.385725 -3.219886 -4.776869 -2.630368 -0.134142 -12.251343 -0.064945 2.097823 5.498625 -4.157741 10.811384 12.633318 -5.343280 -2.512607 -6.199024 1.069295 23.514376 41.518589 -114.125597 2.455184 5.524067 -14.471600 -29.239353 7.308514 47.752567 18.467727 3.963059 -11.480640 10.610324 2.752029 -6.502550 5.683911 -6.850090 -1.788734 29.513456 16.733316 28.095604 -8.819661 54.745660 26.843892 7.243164 27.274079 -20.238026 -0.000003 0.000012 -0.000003 0.000005 0.000001 -0.000007 -8.816822 -5.314050 5.319763 5.204401 14.399661 -8.627598 -9.690362 -28.030787 -5.521529 -0.000003 -2.894496 0.000001 -2.636456 -12.974551 -17.174910 0.896910 11.842695 -16.308275 -6.485188 -20.774302 -4.145713 0.000002 4.916494 0.000005 
0.645113 3.063519 24.959534 171.273318 6.581941 -3.096392 0.502067 -1.365146 -1.969230 0.764413 -1.381824 2.244259 -3.219887 -4.776870 -2.630369 -4.502170 -9.489255 1.792560 3.246429 2.135982 -2.746706 11.131576 11.070627 -2.542182 -2.512607 -6.199024 1.069296 20.045437 24.337996 -97.421631 1.090837 4.143050 -10.853697 -29.224740 -6.981749 28.051971 13.850793 2.972297 -8.610481 7.939651 2.065248 -4.875695 5.683911 -6.850091 -1.788734 30.924771 7.386837 52.499962 -7.632373 54.002918 23.864988 7.243158 27.274081 -20.238026 0.000001 0.000004 -0.000000 0.000007 -0.000001 -0.000002 -9.383520 -8.110666 7.055131 3.635867 12.223819 -6.415823 -9.077695 -22.148828 -5.261386 -0.000003 -2.894500 0.000001 -3.048627 -15.724368 -14.742407 0.614700 10.456114 -13.635702 -7.676424 -17.069341 -4.188968 -0.000000 4.916497 -0.000004 
-0.709781 1.622640 24.959532 171.273318 6.581941 -3.096392 0.703115 -0.376323 -2.743861 0.766709 1.781443 -1.880121 -3.219886 -4.776869 -2.630370 -9.052039 -6.931996 3.603891 4.560364 -1.167286 -1.354157 11.631821 9.571587 0.209440 -2.512608 -6.199022 1.069293 16.576497 7.157397 -80.717666 -0.273509 2.762033 -7.235797 -29.481832 -20.481313 6.400070 9.233866 1.981529 -5.740324 5.281032 1.377416 -3.249884 5.683909 -6.850091 -1.788735 32.336083 -1.959653 76.904331 -6.445075 53.260169 20.886083 7.243162 27.274079 -20.238021 -0.000000 -0.000002 -0.000002 0.000005 -0.000006 -0.000006 -9.786525 -10.943122 8.819328 2.245001 9.956462 -4.245720 -8.514352 -16.264762 -5.075808 -0.000001 -2.894503 0.000001 -3.220461 -18.529600 -12.279372 0.464347 9.070966 -10.994142 -8.860696 -13.375793 -4.249374 0.000001 4.916491 0.000001 
-2.064674 0.181759 24.959534 171.273318 6.581941 -3.096392 0.930984 0.608473 -3.519096 1.230401 4.946204 -6.024795 -3.219887 -4.776871 -2.630371 -13.772114 -4.584743 5.360028 6.035507 -4.405311 0.031879 12.302788 8.148989 2.917213 -2.512610 -6.199020 1.069292 13.107559 -10.023200 -64.013680 -1.637857 1.381012 -3.617894 -30.991700 -33.617231 -17.241559 4.616937 0.990768 -2.870164 2.634486 0.688884 -1.624767 5.683906 -6.850091 -1.788735 33.747411 -11.306143 101.308699 -5.257780 52.517427 17.907182 7.243160 27.274074 -20.238018 -0.000004 -0.000000 0.000002 -0.000002 0.000001 -0.000003 -10.019850 -13.803805 10.625771 1.032751 7.607461 -2.109951 -7.983905 -10.379301 -4.953415 0.000002 -2.894503 0.000003 -3.140108 -21.374845 -9.765407 0.443109 7.696199 -8.378570 -10.035677 -9.693722 -4.327255 0.000001 4.916494 -0.000005 
-3.419568 -1.259120 24.959536 171.273318 6.581941 -3.096392 1.185636 1.588695 -4.295602 2.160264 8.061964 -10.227568 -3.219887 -4.776870 -2.630374 -18.648858 -2.449457 7.048368 7.669094 -7.572489 1.422186 13.134907 6.814694 5.585385 -2.512610 -6.199018 1.069293 9.638622 -27.203795 -47.309708 -3.002201 -0.000004 0.000004 -35.899471 -46.431404 -44.193308 0.000005 0.000002 -0.000002 0.000000 0.000003 0.000001 5.683905 -6.850088 -1.788736 35.158723 -20.652636 125.713060 -4.070488 51.774678 14.928287 7.243157 27.274074 -20.238021 -0.000002 -0.000004 0.000011 -0.000009 -0.000002 0.000002 -10.075800 -16.684701 12.489276 0.000001 5.186696 0.000003 -7.473109 -4.493000 -4.887217 0.000004 -2.894501 0.000005 -2.793102 -24.243946 -7.177435 0.548037 6.340491 -5.784135 -11.198983 -6.023205 -4.423286 -0.000001 4.916492 -0.000003 
-3.242121 -1.259121 24.959536 171.250683 6.583140 -3.042940 0.889786 1.613229 -3.221850 1.623445 8.138573 -7.671860 -2.416086 -4.839126 -1.974142 -14.008607 -1.741618 5.360916 5.754225 -7.687229 1.072946 9.867335 6.237230 4.238164 -2.909022 -6.280405 1.159224 4.038938 -26.384901 -57.110128 -2.118122 6.471830 -1.866033 -26.533594 -39.174813 -31.360110 0.000009 0.000001 -0.000005 0.000000 0.000004 0.000000 5.287496 -6.768706 -1.698804 29.559051 -21.471524 115.912641 -3.186396 45.302845 13.062248 7.200239 17.256027 -13.949691 -0.000000 -0.000005 0.000002 -0.000000 -0.000000 -0.000004 -8.374941 -17.480408 11.886896 -0.055534 5.333503 0.721710 -5.164213 -4.656490 -3.725484 0.000001 -1.918127 0.000003 -1.284917 -23.150388 -7.896593 0.466606 6.199338 -5.059721 -8.841872 -5.805956 -3.249860 0.000003 3.940120 -0.000003 
-3.064675 -1.259121 24.959536 171.228020 6.584331 -2.989491 0.593458 1.630760 -2.147972 1.083846 8.193388 -5.115138 -1.611280 -4.883625 -1.316744 -9.350051 -1.230091 3.609844 3.837310 -7.769402 0.718307 6.586177 5.821573 2.848989 -3.305427 -6.361790 1.249157 -1.560743 -25.566008 -66.910548 -1.234042 12.943673 -3.732072 -19.855529 -30.823185 -21.074234 0.000006 0.000000 -0.000005 0.000001 -0.000002 -0.000000 4.891089 -6.687323 -1.608872 23.959382 -22.290416 106.112221 -2.302314 38.831009 11.196212 7.936220 7.272070 -7.803315 -0.000003 -0.000003 0.000007 -0.000007 0.000002 0.000001 -6.698040 -18.318617 11.264789 -0.114783 5.479712 1.443763 -2.847533 -4.828309 -2.565295 -0.000002 -0.941755 0.000001 0.254244 -22.098874 -8.601516 0.388855 6.057169 -4.335733 -6.490810 -5.595478 -2.081334 0.000001 2.963745 -0.000001 
-2.887229 -1.259121 24.959536 171.205385 6.585493 -2.936038 0.296808 1.641285 -1.074007 0.542387 8.226317 -2.557742 -0.805808 -4.910335 -0.658565 -4.678426 -0.920772 1.815767 1.919001 -7.818790 0.360059 3.295528 5.570892 1.431590 -3.701841 -6.443174 1.339090 -7.160422 -24.747119 -76.710961 -0.349959 19.415503 -5.598113 -15.109012 -21.794020 -12.537421 0.000006 -0.000000 -0.000005 0.000002 0.000005 -0.000001 4.494675 -6.605938 -1.518939 18.359709 -23.109308 96.311801 -1.418225 32.359175 9.330178 9.424019 -2.617536 -1.527082 -0.000006 -0.000002 0.000004 -0.000002 -0.000001 0.000000 -5.046321 -19.199532 10.624159 -0.177750 5.625254 2.166180 -0.523394 -5.008321 -1.405596 -0.000003 0.034620 -0.000000 1.823266 -21.089739 -9.291601 0.314789 5.914053 -3.612152 -4.146055 -5.392164 -0.916640 0.000003 1.987370 -0.000004 
-2.709783 -1.259121 24.959536 171.182736 6.586637 -2.882588 -0.000000 1.644794 -0.000001 -0.000003 8.237302 -0.000003 0.000003 -4.919240 0.000002 -0.000000 -0.817263 0.000000 0.000004 -7.835269 0.000003 -0.000003 5.487117 -0.000002 -4.098252 -6.524557 1.429021 -12.760106 -23.928222 -86.511381 0.534123 25.887336 -7.464149 -11.748094 -12.340140 -5.146743 0.000004 0.000000 -0.000003 -0.000002 0.000003 0.000003 4.098265 -6.524555 -1.429009 12.760042 -23.928198 86.511381 -0.534137 25.887341 7.464138 11.748098 -12.340137 5.146751 -0.000003 -0.000001 0.000005 -0.000002 0.000001 -0.000000 -3.420999 -20.123255 9.966096 -0.244419 5.770058 2.888977 1.807907 -5.196341 -0.245310 -0.000002 1.010998 -0.000000 3.421014 -20.123245 -9.966113 0.244416 5.770058 -2.888971 -1.807883 -5.196350 0.245310 0.000001 1.010996 -0.000002 
-2.532336 -1.259121 24.959536 171.160087 6.587758 -2.829135 -0.296809 1.641286 1.074006 -0.542392 8.226317 2.557734 0.805811 -4.910330 0.658569 4.678429 -0.920772 -1.815766 -1.918996 -7.818797 -0.360053 -3.295530 5.570889 -1.431592 -4.494662 -6.605945 1.518953 -18.359781 -23.109329 -96.311808 1.418200 32.359169 -9.330190 -9.424010 -2.617534 1.527084 0.000007 -0.000002 -0.000007 0.000002 0.000000 -0.000001 3.701853 -6.443171 -1.339077 7.160370 -24.747094 76.710961 0.349946 19.415506 5.598101 15.109014 -21.794020 12.537438 -0.000004 -0.000001 0.000003 0.000002 -0.000001 -0.000001 -1.823248 -21.089751 9.291586 -0.314794 5.914049 3.612157 4.146080 -5.392144 0.916638 -0.000003 1.987369 -0.000001 5.046337 -19.199518 -10.624178 0.177744 5.625255 -2.166177 0.523418 -5.008320 1.405594 0.000002 0.034620 -0.000001 
